C:\GBW_MyPrograms\KinderuniversiteitApp\Resultaten\Ellis_v10102025\Jullie_lengte\Jullie_lengte_v6.mot
version=1
nRows=18
nColumns=29
inDegrees=yes
endheader
                time	         pelvis_tilt	           pelvis_tx	           pelvis_ty	       hip_flexion_l	       hip_flexion_r	        knee_angle_l	        knee_angle_r	       ankle_angle_l	       ankle_angle_r	    lumbar_extension	hamstrings_r/activation	bifemsh_r/activation	glut_max_r/activation	iliopsoas_r/activation	rect_fem_r/activation	  vasti_r/activation	gastroc_r/activation	 soleus_r/activation	tib_ant_r/activation	hamstrings_l/activation	bifemsh_l/activation	glut_max_l/activation	iliopsoas_l/activation	rect_fem_l/activation	  vasti_l/activation	gastroc_l/activation	 soleus_l/activation	tib_ant_l/activation	
          1.52207614	         -7.88347677	          1.28330467	          0.67405913	         31.71504110	         -7.18473274	        -14.29959526	        -11.08914810	         11.01631663	          6.01103516	          0.85297067	          0.05000000	          0.11910101	          0.05000002	          0.34356549	          0.05000002	          0.05000000	          0.17438588	          0.24718713	          0.05000000	          0.10197732	          0.05000000	          0.05854682	          0.05000000	          0.06834687	          0.05503589	          0.05000000	          0.05000000	          0.23858920	
          1.53222332	         -7.88200279	          1.29406077	          0.67341667	         30.87776683	         -7.01791625	        -13.64876962	        -13.07999755	         10.92419207	          5.47793470	          1.13915556	          0.05000000	          0.10187239	          0.05355354	          0.32368571	          0.05000000	          0.05000000	          0.14916000	          0.23083194	          0.05000000	          0.09900608	          0.05000000	          0.06766312	          0.05000000	          0.05846012	          0.07357246	          0.05000000	          0.05000000	          0.25463411	
          1.54237049	         -7.87432211	          1.30509340	          0.67270361	         29.95405196	         -6.73213764	        -13.50577340	        -15.32360186	         10.77999689	          4.82595403	          1.46379140	          0.05000001	          0.08713599	          0.08953531	          0.28442770	          0.05000000	          0.05000000	          0.12758319	          0.19744083	          0.05000000	          0.09363505	          0.05537584	          0.05787528	          0.05000000	          0.05000354	          0.06292980	          0.06378515	          0.05692355	          0.24055763	
          1.55251767	         -7.86227820	          1.31627873	          0.67196957	         29.01323555	         -6.34207525	        -13.60458267	        -17.75883291	         10.60436532	          4.01249052	          1.80997319	          0.05000000	          0.07453129	          0.10272005	          0.25672569	          0.05000000	          0.05000000	          0.10912758	          0.16887993	          0.05000000	          0.08196432	          0.06644668	          0.08652596	          0.05000000	          0.05000000	          0.10285883	          0.05455828	          0.05000000	          0.26537597	
          1.56266484	         -7.84970977	          1.32739214	          0.67140307	         28.16338072	         -5.82983355	        -13.83876540	        -20.35525843	         10.40929882	          3.00374096	          2.14571135	          0.05000000	          0.06374993	          0.08786103	          0.24393853	          0.05000000	          0.05916637	          0.09334168	          0.14445052	          0.11592254	          0.07245189	          0.05683480	          0.13608996	          0.05000000	          0.05000000	          0.16896545	          0.05000000	          0.05000000	          0.28480336	
          1.57281202	         -7.84003613	          1.33825416	          0.67113372	         27.41357840	         -5.19537138	        -14.19605271	        -23.08532393	         10.20038154	          1.96908154	          2.44651871	          0.05000000	          0.05452816	          0.07515145	          0.23708965	          0.05000000	          0.05336591	          0.07983929	          0.12355496	          0.23069374	          0.07172322	          0.05000000	          0.17363667	          0.05000000	          0.05000000	          0.21746685	          0.05000000	          0.05000000	          0.29765433	
          1.58295919	         -7.83572322	          1.34873985	          0.67115411	         26.72132494	         -4.45967390	        -14.58819110	        -25.84366986	         10.02630994	          1.29052921	          2.69589496	          0.05045830	          0.09944273	          0.06428038	          0.23686846	          0.05000000	          0.05000000	          0.06829011	          0.10568205	          0.22133993	          0.06807672	          0.05000000	          0.18901295	          0.05000000	          0.05000000	          0.24580135	          0.05000000	          0.05000000	          0.30417650	
          1.59310636	         -7.83767967	          1.35881367	          0.67147385	         26.04714908	         -3.65592537	        -14.94254841	        -28.36268119	          9.90845101	          1.17632025	          2.89028662	          0.05955886	          0.11803285	          0.05498187	          0.22787514	          0.05000000	          0.05000000	          0.06874747	          0.09039456	          0.24950312	          0.06727963	          0.05000001	          0.18281120	          0.05000000	          0.05000000	          0.25577439	          0.05000000	          0.05000000	          0.30003489	
          1.60325354	         -7.84484513	          1.36850684	          0.67211508	         25.36103084	         -2.76989215	        -15.21362058	        -30.64541230	          9.85524800	          1.40293451	          3.03480764	          0.06519311	          0.13046908	          0.05000000	          0.21849084	          0.05000000	          0.05000000	          0.06607454	          0.07731849	          0.24663718	          0.06634238	          0.05000002	          0.16717156	          0.05000000	          0.05000000	          0.25502038	          0.05000000	          0.05000000	          0.28980869	
          1.61340071	         -7.85563496	          1.37786864	          0.67303800	         24.64655298	         -1.79783064	        -15.38089478	        -32.73641443	          9.85428995	          1.81353015	          3.13650667	          0.06728535	          0.15084449	          0.05000000	          0.20812887	          0.05000001	          0.05000000	          0.06639087	          0.06613395	          0.23795198	          0.06546425	          0.05000002	          0.14726445	          0.05000000	          0.05000000	          0.24696011	          0.05000000	          0.05000000	          0.27712043	
          1.62354789	         -7.86848257	          1.38694981	          0.67416959	         23.89838505	         -0.74757314	        -15.44317863	        -34.65895294	          9.88351095	          2.32589207	          3.20220391	          0.07580903	          0.18042125	          0.05000000	          0.19570426	          0.09251925	          0.05000000	          0.06616446	          0.05656731	          0.22593609	          0.06715462	          0.05000002	          0.13554140	          0.05000000	          0.05000000	          0.23426660	          0.05000000	          0.05000000	          0.26481456	
          1.63369506	         -7.88205643	          1.39579877	          0.67543010	         23.11563887	          0.36640881	        -15.40736930	        -36.41147867	          9.92591578	          2.88161073	          3.23821638	          0.08036212	          0.21640822	          0.05000000	          0.18460432	          0.12639964	          0.05000000	          0.06550631	          0.05000000	          0.21636240	          0.06780741	          0.05000001	          0.12722061	          0.05000000	          0.05000000	          0.22066032	          0.05000000	          0.05000000	          0.25245297	
          1.64384224	         -7.89526218	          1.40445399	          0.67674587	         22.30133186	          1.53333908	        -15.28586013	        -37.98859909	          9.97108158	          3.43453007	          3.24923266	          0.08054894	          0.25730252	          0.05000000	          0.17439076	          0.15507364	          0.05000000	          0.05624188	          0.05000000	          0.21107108	          0.06794029	          0.05000001	          0.12151360	          0.05000000	          0.05000000	          0.20752618	          0.05000000	          0.05000000	          0.23880229	
          1.65398941	         -7.90726495	          1.41294369	          0.67805487	         21.46017893	          2.74756674	        -15.09220405	        -39.39427474	         10.01222706	          3.97271281	          3.23842115	          0.07359853	          0.29843811	          0.05000000	          0.16412239	          0.17664500	          0.05000000	          0.05190536	          0.05000000	          0.20855767	          0.06824150	          0.05000000	          0.11858615	          0.05000000	          0.05000000	          0.19536861	          0.05000000	          0.05000000	          0.22340838	
          1.66413658	         -7.91746287	          1.42128818	          0.67930944	         20.59621533	          4.00740753	        -14.83702914	        -40.63928601	         10.04323885	          4.48870247	          3.20790007	          0.06295211	          0.33725415	          0.05000000	          0.15397912	          0.19225540	          0.05000000	          0.05000001	          0.05000000	          0.20827197	          0.06822109	          0.05000000	          0.11720736	          0.05000000	          0.05000000	          0.18445383	          0.05000000	          0.05000000	          0.20593965	
          1.67428376	         -7.92544220	          1.42950144	          0.68047552	         19.71237961	          5.31450034	        -14.52748795	        -41.74147242	         10.05819198	          4.98445527	          3.15897849	          0.05384576	          0.37085195	          0.05000000	          0.14444997	          0.20278784	          0.05000000	          0.05000000	          0.05000000	          0.21010413	          0.06718522	          0.05000000	          0.11525663	          0.05000000	          0.05000000	          0.17498974	          0.05000000	          0.05000000	          0.18594550	
          1.68443093	         -7.93093360	          1.43759309	          0.68153158	         18.81099977	          6.67175121	        -14.16850201	        -42.72306483	         10.05117972	          5.46466375	          3.09246213	          0.05000000	          0.39686775	          0.05000000	          0.13637792	          0.20925692	          0.05000000	          0.05000000	          0.05000000	          0.21190384	          0.06465144	          0.05000000	          0.11089044	          0.05000000	          0.05000000	          0.16634581	          0.05000000	          0.05000000	          0.16279675	
          1.69457811	         -7.93379007	          1.44556970	          0.68246701	         17.89495822	          8.08182984	        -13.76569585	        -43.60950722	         10.02097273	          5.93479474	          3.00884822	          0.05000000	          0.41532477	          0.05000000	          0.12973656	          0.21195770	          0.05000000	          0.05000000	          0.05000000	          0.21403690	          0.06070065	          0.05000000	          0.10424268	          0.05000000	          0.05000000	          0.15891561	          0.05000000	          0.05038844	          0.13924731	
